<svg id="レイヤー_1" data-name="レイヤー 1" xmlns="http://www.w3.org/2000/svg" viewBox="0 0 37.73 40.6"><defs><style>.cls-1,.cls-2{fill:none;stroke:#000;stroke-linecap:round;stroke-width:2px;}.cls-1{stroke-miterlimit:10;}.cls-2{stroke-linejoin:round;}</style></defs><path class="cls-1" d="M21.3,32.84a13.16,13.16,0,0,1-2.53.27A13.62,13.62,0,0,1,6.24,24.74"/><path class="cls-1" d="M6.08,14.8A12.76,12.76,0,0,1,18.32,6a13.66,13.66,0,0,1,13.77,13"/><path class="cls-1" d="M6.08,14.8c.41-.12,5.23-.72,7.62.65,2.06,1.19,2.37,4.61,1.85,6.07-.92,2.62-4.79,3.23-9.31,3.22"/><path d="M6.9,19.82a1.61,1.61,0,0,1,1.56-1.56c.88,0,4.45.41,4.45,1.29s-3.56,1.93-4.45,1.92A1.6,1.6,0,0,1,6.9,19.82Z"/><path class="cls-1" d="M13.73,28.51a8.87,8.87,0,0,0,3.95-3.06A7.08,7.08,0,0,0,19,21"/><path d="M19.5,26.3A1.8,1.8,0,1,1,21.27,28,1.82,1.82,0,0,1,19.5,26.3Z"/><path class="cls-1" d="M21.68,32.71a7.21,7.21,0,0,0,4.41-5.21,7.38,7.38,0,0,0-1.84-7"/><path class="cls-2" d="M32.09,18.39c-.14.27-.23-1.31,0,.66,0,.15-1.18,1.12-2.34-.89a4.74,4.74,0,0,0-1.2-1.48l-.06-.05a1.25,1.25,0,0,0-2,.55l-.15,1.08a.57.57,0,0,0,.13.57c.23.23.43.36.77.7a3.94,3.94,0,0,1,1.37,2.53"/><path class="cls-2" d="M31.68,16.31c0-1.13-1.85-3.41-3.48-3.48a2.85,2.85,0,0,0-3,1.87,3,3,0,0,0-2.65-1.63,3.23,3.23,0,0,0-2.22.72s0,0,0-.07a3.08,3.08,0,0,0-3.19-2.92,3.59,3.59,0,0,0-2.59.89.45.45,0,0,0,0-.11A2.62,2.62,0,0,0,12.1,8.77a4.38,4.38,0,0,0-3.94,2.12"/><path d="M28.61,10.73a4.75,4.75,0,0,0-2-2A4.92,4.92,0,0,0,24,7.82l-.47-.37A5.19,5.19,0,0,0,21,6.63a4.28,4.28,0,0,0-.62,0,2.42,2.42,0,0,0-2.15-.22,4.64,4.64,0,0,0-1,.58,8.42,8.42,0,0,1-1-.09c-.47-.06-.92-.22-1.39-.3-.87-.15-2,.39-1.9,1.45a3,3,0,0,0,3.92,2.59,3.37,3.37,0,0,0,1.09-.49,2,2,0,0,0,2,.89A2.49,2.49,0,0,0,21,12.48a7.56,7.56,0,0,0,2,.58c1.91.48,3.73.94,5.37-.51A1.56,1.56,0,0,0,28.61,10.73Z"/></svg>