<?xml version="1.0" encoding="utf-8"?>
<!-- Generator: Adobe Illustrator 25.1.0, SVG Export Plug-In . SVG Version: 6.00 Build 0)  -->
<svg version="1.1" id="レイヤー_1" xmlns="http://www.w3.org/2000/svg" xmlns:xlink="http://www.w3.org/1999/xlink" x="0px"
	 y="0px" viewBox="0 0 37.7 40.6" style="enable-background:new 0 0 37.7 40.6;" xml:space="preserve">
<style type="text/css">
	.st0{fill:none;stroke:#000000;stroke-width:2;stroke-linecap:round;stroke-miterlimit:10;}
	.st1{stroke:#000000;stroke-miterlimit:10;}
	.st2{fill:none;stroke:#000000;stroke-width:2;stroke-linecap:round;stroke-linejoin:round;}
	.st3{stroke:#000000;stroke-width:2;stroke-linecap:round;stroke-linejoin:round;}
</style>
<path class="st0" d="M21.3,32.8c-0.8,0.2-1.7,0.3-2.5,0.3c-5.5,0-10.4-3.3-12.5-8.4"/>
<path class="st0" d="M6.1,14.8C7.8,9.5,12.8,6,18.3,6c7.3-0.1,13.4,5.7,13.8,13"/>
<path class="st0" d="M6.1,14.8c0.4-0.1,5.2-0.7,7.6,0.6c2.1,1.2,2.4,4.6,1.9,6.1c-0.9,2.6-4.8,3.2-9.3,3.2"/>
<path class="st1" d="M6.9,19.8c0-0.9,0.7-1.5,1.6-1.6c0.9,0,4.4,0.4,4.4,1.3s-3.6,1.9-4.4,1.9C7.6,21.4,6.9,20.7,6.9,19.8
	C6.9,19.8,6.9,19.8,6.9,19.8z"/>
<path class="st0" d="M13.7,28.5c1.6-0.6,3-1.7,4-3.1c0.9-1.3,1.4-2.9,1.3-4.5"/>
<path class="st1" d="M19.5,26.3c-0.1-1,0.7-1.8,1.7-1.9c1-0.1,1.8,0.7,1.9,1.7c0.1,1-0.7,1.8-1.7,1.9c0,0-0.1,0-0.1,0
	C20.3,28,19.6,27.2,19.5,26.3z"/>
<path class="st0" d="M21.7,32.7c2.3-0.9,3.9-2.8,4.4-5.2c0.7-2.5,0-5.1-1.8-7"/>
<path class="st2" d="M32.1,18.4c-0.1,0.3-0.2-1.3,0,0.7c0,0.1-1.2,1.1-2.3-0.9c-0.3-0.6-0.7-1.1-1.2-1.5l-0.1,0
	c-0.5-0.5-1.3-0.4-1.8,0.1c-0.1,0.1-0.2,0.3-0.2,0.4l-0.1,1.1c-0.1,0.2,0,0.4,0.1,0.6c0.2,0.2,0.4,0.4,0.8,0.7
	c0.8,0.6,1.2,1.5,1.4,2.5"/>
<path class="st3" d="M31.7,16.3c-0.2-2-1.8-3.5-3.5-3.5c-1.2,0-2.3,0.7-3,1.9c-0.5-1-1.5-1.6-2.6-1.6c-0.8,0-1.6,0.2-2.2,0.7
	c0,0,0,0,0-0.1c-0.1-1.7-1.5-3-3.2-2.9c-0.9-0.1-1.9,0.3-2.6,0.9c0,0,0-0.1,0-0.1c0.1-1.4-1-2.7-2.4-2.8c0,0,0,0,0,0
	c-1.4-0.1-4,2.1-3.9,2.1c0,0,1.5-2.2,4.6-3.7C15.9,5.8,18.9,6,20,6.1c1,0.1,5.2,0.7,8.5,4.3C30.6,12.7,31.4,15.1,31.7,16.3z"/>
</svg>
