<svg id="レイヤー_1" data-name="レイヤー 1" xmlns="http://www.w3.org/2000/svg" viewBox="0 0 159.55 45.42"><defs><style>.cls-1,.cls-2{fill:none;stroke:#000;stroke-linecap:round;stroke-width:2px;}.cls-1{stroke-miterlimit:10;}.cls-2{stroke-linejoin:round;}</style></defs><path d="M69.42,26.74c2.28.28,2.57,3.11-.67,3.35-.91.07-1.62.14-2.53.17-1.62.1-9.39,1-10.62,1.16a15.9,15.9,0,0,1-3.44.2c-2.39-.17-2.57-3.48.45-3.31a21,21,0,0,0,2.5-.06c1.2-.11,8.12-1,10.58-1.27m-.16-5.67a7.08,7.08,0,0,1-1.09.31c-1.35.2-2.07.23-2.46.27-1.55.17-3.62.55-4.82.75a15.09,15.09,0,0,1-3.34.34c-2.28,0-2.81-3.24.11-3.28a21.46,21.46,0,0,0,2.53,0c1.3-.17,3.73-.55,5.31-.75.88-.1,2-.34,2.85-.41a1.78,1.78,0,0,1,.76.08A1.34,1.34,0,0,1,66,19a2.49,2.49,0,0,1-.16,2m1.53-3.23c.32-1.4.56-2.52.67-3.07.21-1.09-.28-1.37-1.3-1.23-1.69.24-7.39,1.06-8.72,1.3a23.75,23.75,0,0,1-4.29.44c-2.25,0-2.67-3.27.17-3.41a28,28,0,0,0,3.41-.14c1.23-.2,7.18-.82,8.44-1a23.37,23.37,0,0,1,3.45-.54,3.44,3.44,0,0,1,3,1.2,3.31,3.31,0,0,1,.38,2.52,70.43,70.43,0,0,1-2.82,10.41,2.29,2.29,0,0,1-2.21,1.24,1.84,1.84,0,0,1-1.51-1c-.22-.56.07-1,.41-2.15a13.32,13.32,0,0,0,.47-2.29"/><path d="M91.49,21.35a12.55,12.55,0,0,0-4.36-1.74C85,19.27,85.73,16,88.29,16.5a18.13,18.13,0,0,1,5.13,1.75,1.74,1.74,0,0,1,.74,2.52A1.8,1.8,0,0,1,91.49,21.35Zm-.18,10.52c-3,.34-3.41-3.21-1.16-3.55a12.85,12.85,0,0,0,2.71-.86c6.47-3.07,12.27-8.94,16.07-15.67,1.19-2.15,4.71-.64,3.09,2.05A43.7,43.7,0,0,1,94.73,30.7,8.38,8.38,0,0,1,91.31,31.87Zm4.43-16.59a13,13,0,0,0-3.86-2.63c-2-.79-.53-3.83,1.86-2.8a18.89,18.89,0,0,1,4.61,2.83,1.76,1.76,0,0,1,.14,2.63A1.85,1.85,0,0,1,95.74,15.28Z"/><path d="M122.12,32.48c-3,1-4.29-2.25-1.3-3.14a26.36,26.36,0,0,0,11.56-7.65,15.94,15.94,0,0,0-2.63-1c-2-.51-1.06-3.42,1.44-2.73a30.83,30.83,0,0,1,3.37,1.12,42.66,42.66,0,0,0,3.8-5.87.59.59,0,0,0-.56-.92c-1.51,0-3.9.72-5.59.79-2.11,2.86-4.89,6.34-8,8.46-2.39,1.61-4.5-1.47-2.07-2.93,3.37-2.05,5.91-5.53,7.56-8a10,10,0,0,0,1.23-2.93,1.85,1.85,0,0,1,3.62.75,4.63,4.63,0,0,1-.35,1.47c1.72-.24,3.55-.58,5.24-.69,2.46-.13,4.5,1.54,3.2,3.73-1.66,2.76-3.24,5.32-4.93,7.61a10.79,10.79,0,0,1,3,2.35,1.92,1.92,0,0,1-.14,2.66,1.73,1.73,0,0,1-2.53-.13,14.79,14.79,0,0,0-2.57-2.05A29.49,29.49,0,0,1,122.12,32.48Zm19.41-24.3c-1.76-.72-.39-2.77,1.23-2.19a11.75,11.75,0,0,1,3.44,2c1.37,1.4-.67,3.48-1.83,2.15A11.92,11.92,0,0,0,141.53,8.18Zm3.12-2.91c-1.79-.68-.52-2.73,1.13-2.21A11,11,0,0,1,149.29,5c1.41,1.37-.56,3.45-1.75,2.19A12.75,12.75,0,0,0,144.65,5.27Z"/><path class="cls-1" d="M26.47,34a13.24,13.24,0,0,1-2.53.27,13.6,13.6,0,0,1-12.53-8.37"/><path class="cls-1" d="M11.24,16A12.79,12.79,0,0,1,23.49,7.2a13.66,13.66,0,0,1,13.76,13"/><path class="cls-1" d="M11.24,16c.41-.12,5.24-.72,7.62.65,2.07,1.19,2.37,4.61,1.86,6.07-.93,2.62-4.79,3.23-9.31,3.22"/><path d="M12.06,21a1.62,1.62,0,0,1,1.56-1.56c.88,0,4.46.41,4.46,1.28s-3.57,1.94-4.46,1.93A1.6,1.6,0,0,1,12.06,21Z"/><path class="cls-1" d="M18.89,29.69a8.76,8.76,0,0,0,3.95-3.06,7.08,7.08,0,0,0,1.29-4.49"/><path d="M24.67,27.48a1.8,1.8,0,1,1,1.77,1.72A1.81,1.81,0,0,1,24.67,27.48Z"/><path class="cls-1" d="M26.84,33.89a7.22,7.22,0,0,0,4.42-5.21,7.4,7.4,0,0,0-1.84-7"/><path class="cls-2" d="M37.25,19.57c-.13.27-.23-1.31,0,.66,0,.15-1.17,1.12-2.34-.89a4.59,4.59,0,0,0-1.19-1.48l-.06-.05a1.25,1.25,0,0,0-2,.55l-.15,1.08a.59.59,0,0,0,.12.57c.23.23.43.35.78.69a3.91,3.91,0,0,1,1.36,2.53"/><path d="M67.27,38.74c-.86-.06-1.53-1.19-1.51-2.52s-.16-6.57.55-7.08c1.41-1,2.69,5.73,2.65,7.14S68.15,38.8,67.27,38.74Z"/><path d="M140,34.86c-.93-.06-1.64-1.38-1.63-2.93s-.15-7.68.61-8.28c1.53-1.19,2.9,6.7,2.85,8.35S141,34.94,140,34.86Z"/><path d="M90.85,41.78c-.93-.07-1.64-1.39-1.62-2.94s-.16-7.67.61-8.27c1.52-1.19,2.89,6.69,2.84,8.34S91.81,41.85,90.85,41.78Z"/><path d="M93.5,34.67a1,1,0,0,1-.85-1c0-.57-.1-2.7.29-2.91.78-.41,1.52,2.37,1.5,3A1,1,0,0,1,93.5,34.67Z"/><path class="cls-2" d="M36.85,17.49c0-1.13-1.85-3.41-3.48-3.48a2.84,2.84,0,0,0-3,1.87,3,3,0,0,0-2.65-1.63,3.27,3.27,0,0,0-2.23.72.19.19,0,0,0,0-.07A3.08,3.08,0,0,0,22.33,12a3.56,3.56,0,0,0-2.58.89l0-.11A2.62,2.62,0,0,0,17.26,10a4.38,4.38,0,0,0-3.93,2.12"/><path d="M33.77,11.91a4.68,4.68,0,0,0-2-2A5,5,0,0,0,29.13,9a5.9,5.9,0,0,0-.47-.37,5.24,5.24,0,0,0-2.52-.83,4.26,4.26,0,0,0-.62,0,2.44,2.44,0,0,0-2.16-.22,4.89,4.89,0,0,0-1,.58,8.61,8.61,0,0,1-1-.09c-.46-.06-.92-.22-1.39-.3-.86-.15-2,.38-1.9,1.45A3,3,0,0,0,22,11.82a3.28,3.28,0,0,0,1.09-.49,2,2,0,0,0,2,.89,2.49,2.49,0,0,0,1.16,1.44,7.38,7.38,0,0,0,2,.58c1.92.47,3.73.94,5.37-.51A1.53,1.53,0,0,0,33.77,11.91Z"/></svg>