<svg id="レイヤー_1" data-name="レイヤー 1" xmlns="http://www.w3.org/2000/svg" viewBox="0 0 419.53 283.46"><defs><style>.cls-1,.cls-2{fill:none;stroke:#000;stroke-linecap:round;stroke-width:2px;}.cls-1{stroke-miterlimit:10;}.cls-2{stroke-linejoin:round;}</style></defs><path d="M169.93,129.13c2.29.27,2.57,3.1-.67,3.34-.91.07-1.62.14-2.53.17-1.62.1-9.39,1-10.62,1.16a16.57,16.57,0,0,1-3.44.21c-2.39-.17-2.57-3.49.46-3.32a20.9,20.9,0,0,0,2.49-.06c1.2-.11,8.12-1,10.58-1.27m-.16-5.67A6,6,0,0,1,165,124c-1.35.2-2.07.23-2.46.27-1.54.17-3.62.55-4.81.75a15.15,15.15,0,0,1-3.34.34c-2.29,0-2.82-3.24.1-3.27a21.46,21.46,0,0,0,2.53,0c1.3-.17,3.73-.54,5.31-.75.88-.1,2-.34,2.85-.41a1.78,1.78,0,0,1,.76.08,1.49,1.49,0,0,1,.65.43,2.53,2.53,0,0,1-.17,2m1.53-3.23c.32-1.4.56-2.52.67-3.07.21-1.09-.28-1.36-1.3-1.23-1.69.24-7.39,1.06-8.72,1.3a23.75,23.75,0,0,1-4.29.44c-2.25,0-2.67-3.27.17-3.41a27.94,27.94,0,0,0,3.41-.14c1.24-.2,7.18-.82,8.44-1a23.37,23.37,0,0,1,3.45-.54,3.44,3.44,0,0,1,3,1.2,3.31,3.31,0,0,1,.38,2.52,71.94,71.94,0,0,1-2.81,10.41,2.34,2.34,0,0,1-2.22,1.25,1.87,1.87,0,0,1-1.51-1c-.22-.56.08-1,.41-2.14a13.65,13.65,0,0,0,.47-2.3"/><path d="M192,123.73a12.55,12.55,0,0,0-4.36-1.74c-2.11-.34-1.4-3.58,1.16-3.1a18,18,0,0,1,5.14,1.74,1.75,1.75,0,0,1,.73,2.52A1.8,1.8,0,0,1,192,123.73Zm-.17,10.52c-3,.34-3.41-3.21-1.16-3.55a13,13,0,0,0,2.7-.86c6.47-3.07,12.27-8.94,16.07-15.66,1.19-2.15,4.71-.65,3.09,2a43.8,43.8,0,0,1-17.29,16.87A8.38,8.38,0,0,1,191.83,134.25Zm4.43-16.59a13.21,13.21,0,0,0-3.87-2.63c-2-.79-.53-3.82,1.86-2.8a18.89,18.89,0,0,1,4.61,2.83,1.76,1.76,0,0,1,.14,2.63A1.84,1.84,0,0,1,196.26,117.66Z"/><path d="M222.63,134.86c-3,1-4.29-2.25-1.3-3.14a26.44,26.44,0,0,0,11.57-7.65,17.38,17.38,0,0,0-2.64-.95c-2-.51-1.06-3.41,1.44-2.73a31.67,31.67,0,0,1,3.38,1.12,43.54,43.54,0,0,0,3.79-5.87.59.59,0,0,0-.56-.92c-1.51,0-3.9.72-5.59.79-2.11,2.86-4.89,6.35-8,8.46-2.39,1.61-4.5-1.47-2.07-2.93,3.37-2.05,5.91-5.53,7.56-8a10.21,10.21,0,0,0,1.23-2.94,1.85,1.85,0,0,1,3.62.75,4.63,4.63,0,0,1-.35,1.47c1.72-.24,3.55-.58,5.24-.68,2.46-.14,4.5,1.53,3.2,3.72-1.66,2.76-3.24,5.32-4.93,7.61a11,11,0,0,1,3,2.35,1.93,1.93,0,0,1-.14,2.67,1.74,1.74,0,0,1-2.53-.14,14.79,14.79,0,0,0-2.57-2A29.49,29.49,0,0,1,222.63,134.86ZM242,110.56c-1.76-.72-.39-2.77,1.23-2.19a12,12,0,0,1,3.44,2c1.37,1.4-.67,3.48-1.83,2.15A11.92,11.92,0,0,0,242,110.56Zm3.13-2.9c-1.8-.69-.53-2.73,1.12-2.22a11.12,11.12,0,0,1,3.52,1.94c1.4,1.37-.57,3.45-1.76,2.19A12.65,12.65,0,0,0,245.17,107.66Z"/><path class="cls-1" d="M127,136.4a13.24,13.24,0,0,1-2.53.27,13.6,13.6,0,0,1-12.53-8.37"/><path class="cls-1" d="M111.75,118.36A12.79,12.79,0,0,1,124,109.58a13.66,13.66,0,0,1,13.76,13"/><path class="cls-1" d="M111.75,118.36c.41-.12,5.24-.72,7.62.65,2.07,1.19,2.37,4.61,1.86,6.07-.93,2.62-4.79,3.23-9.31,3.22"/><path d="M112.57,123.39a1.63,1.63,0,0,1,1.56-1.57c.88,0,4.46.41,4.46,1.29S115,125,114.14,125A1.61,1.61,0,0,1,112.57,123.39Z"/><path class="cls-1" d="M119.4,132.07a8.76,8.76,0,0,0,3.95-3.06,7,7,0,0,0,1.29-4.49"/><path d="M125.18,129.86a1.8,1.8,0,1,1,1.77,1.72A1.81,1.81,0,0,1,125.18,129.86Z"/><path class="cls-1" d="M127.36,136.27a7.23,7.23,0,0,0,4.41-5.21,7.4,7.4,0,0,0-1.84-7"/><path class="cls-2" d="M137.76,122c-.13.27-.23-1.31,0,.66,0,.15-1.17,1.12-2.34-.89a4.59,4.59,0,0,0-1.19-1.48l-.06,0a1.25,1.25,0,0,0-2,.55l-.15,1.08a.59.59,0,0,0,.12.57c.24.23.44.36.78.7a3.87,3.87,0,0,1,1.36,2.53"/><path d="M167.78,141.12c-.86-.06-1.53-1.19-1.51-2.52s-.16-6.57.55-7.08c1.41-1,2.69,5.73,2.65,7.14S168.66,141.18,167.78,141.12Z"/><path d="M240.53,137.25c-.93-.07-1.64-1.39-1.63-2.94s-.15-7.68.62-8.28c1.52-1.18,2.89,6.7,2.84,8.35S241.48,137.32,240.53,137.25Z"/><path d="M191.36,144.16c-.93-.07-1.64-1.39-1.62-2.94s-.16-7.67.61-8.27c1.52-1.19,2.89,6.69,2.85,8.34S192.32,144.23,191.36,144.16Z"/><path d="M194,137.05a1,1,0,0,1-.85-1c0-.57-.1-2.7.29-2.91.79-.41,1.52,2.37,1.5,3A1,1,0,0,1,194,137.05Z"/><path class="cls-2" d="M137.36,119.87c0-1.13-1.85-3.41-3.48-3.48a2.85,2.85,0,0,0-3,1.87,3,3,0,0,0-2.65-1.63,3.24,3.24,0,0,0-2.22.73s0,0,0-.08a3.08,3.08,0,0,0-3.2-2.92,3.56,3.56,0,0,0-2.58.89l0-.11a2.62,2.62,0,0,0-2.52-2.81,4.38,4.38,0,0,0-3.93,2.12"/><path d="M134.29,114.29a4.81,4.81,0,0,0-2-2,4.94,4.94,0,0,0-2.63-.89c-.16-.13-.31-.26-.48-.38a5.12,5.12,0,0,0-2.52-.82,4.28,4.28,0,0,0-.62,0,2.42,2.42,0,0,0-2.15-.22,4.72,4.72,0,0,0-1,.58,8.26,8.26,0,0,1-1-.09c-.47-.06-.93-.22-1.4-.3-.86-.15-2,.39-1.9,1.45a3,3,0,0,0,3.92,2.59,3.19,3.19,0,0,0,1.09-.49,2,2,0,0,0,2,.89,2.49,2.49,0,0,0,1.16,1.44,7.38,7.38,0,0,0,2,.58c1.92.48,3.73.94,5.37-.51A1.54,1.54,0,0,0,134.29,114.29Z"/></svg>